<?xml version="1.0" encoding="UTF-8" standalone="no"?>
<svg
   xmlns:dc="http://purl.org/dc/elements/1.1/"
   xmlns:cc="http://creativecommons.org/ns#"
   xmlns:rdf="http://www.w3.org/1999/02/22-rdf-syntax-ns#"
   xmlns:svg="http://www.w3.org/2000/svg"
   xmlns="http://www.w3.org/2000/svg"
   xmlns:xlink="http://www.w3.org/1999/xlink"
   xmlns:sodipodi="http://sodipodi.sourceforge.net/DTD/sodipodi-0.dtd"
   xmlns:inkscape="http://www.inkscape.org/namespaces/inkscape"
   data-v-1084b650=""
   viewBox="0 0 238.98305 68.644066"
   version="1.1"
   id="svg22"
   sodipodi:docname="icon-left-font.svg"
   inkscape:version="0.92.3 (2405546, 2018-03-11)"
   width="238.98305"
   height="68.644066">
  <metadata
     id="metadata28">
    <rdf:RDF>
      <cc:Work
         rdf:about="">
        <dc:format>image/svg+xml</dc:format>
        <dc:type
           rdf:resource="http://purl.org/dc/dcmitype/StillImage" />
      </cc:Work>
    </rdf:RDF>
  </metadata>
  <defs
     id="defs26">
    <linearGradient
       inkscape:collect="always"
       xlink:href="#4a0e07a2-e962-d053-7c69-15576c651ea5"
       id="linearGradient18"
       gradientTransform="scale(2.2491169,0.44461896)"
       x1="0.33346422"
       y1="6.3650008"
       x2="22.622212"
       y2="6.3650008"
       gradientUnits="userSpaceOnUse" />
    <linearGradient
       inkscape:collect="always"
       xlink:href="#4a0e07a2-e962-d053-7c69-15576c651ea5"
       id="linearGradient20"
       gradientTransform="scale(2.2491169,0.44461896)"
       x1="0.33346422"
       y1="6.3650008"
       x2="22.622212"
       y2="6.3650008"
       gradientUnits="userSpaceOnUse" />
    <linearGradient
       inkscape:collect="always"
       xlink:href="#e3d4f64a-b729-40b3-cd89-ea8508612a94"
       id="linearGradient22"
       gradientTransform="scale(0.75549722,1.3236316)"
       x1="32.770471"
       y1="4.3637519"
       x2="99.592689"
       y2="4.3637519"
       gradientUnits="userSpaceOnUse" />
    <linearGradient
       inkscape:collect="always"
       xlink:href="#e3d4f64a-b729-40b3-cd89-ea8508612a94"
       id="linearGradient24"
       gradientTransform="scale(0.75549722,1.3236316)"
       x1="32.770471"
       y1="4.3637519"
       x2="99.592689"
       y2="4.3637519"
       gradientUnits="userSpaceOnUse" />
    <linearGradient
       inkscape:collect="always"
       xlink:href="#e3d4f64a-b729-40b3-cd89-ea8508612a94"
       id="linearGradient26"
       gradientTransform="scale(0.75549722,1.3236316)"
       x1="32.770471"
       y1="4.3637519"
       x2="99.592689"
       y2="4.3637519"
       gradientUnits="userSpaceOnUse" />
  </defs>
  <sodipodi:namedview
     pagecolor="#ffffff"
     bordercolor="#666666"
     borderopacity="1"
     objecttolerance="10"
     gridtolerance="10"
     guidetolerance="10"
     inkscape:pageopacity="0"
     inkscape:pageshadow="2"
     inkscape:window-width="1920"
     inkscape:window-height="1027"
     id="namedview24"
     showgrid="false"
     inkscape:zoom="0.78666667"
     inkscape:cx="114.40678"
     inkscape:cy="33.050843"
     inkscape:window-x="-8"
     inkscape:window-y="-8"
     inkscape:window-maximized="1"
     inkscape:current-layer="svg22" />
  <!---->
  <!---->
  <rect
     data-v-1084b650=""
     x="0"
     y="0"
     width="238.98305"
     height="68.644066"
     class="logo-background-square"
     id="rect2"
     style="fill:none;stroke-width:0.42693698" />
  <linearGradient
     data-v-1084b650=""
     gradientTransform="rotate(25)"
     id="4a0e07a2-e962-d053-7c69-15576c651ea5"
     x1="0"
     y1="0"
     x2="1"
     y2="0">
    <stop
       data-v-1084b650=""
       offset="0%"
       style="stop-color: rgb(234, 116, 37); stop-opacity: 1;"
       id="stop4" />
    <stop
       data-v-1084b650=""
       offset="100%"
       style="stop-color: rgb(45, 122, 95); stop-opacity: 1;"
       id="stop6" />
  </linearGradient>
  <g
     data-v-1084b650=""
     id="579a1dc0-c639-d48d-1ee7-bb4a10a46477"
     transform="matrix(3.7,0,0,3.7,47.587764,6.7887236)"
     style="fill:url(#linearGradient20)">
    <path
       d="m 1.03,12.33 v 0 -0.75 0 q 1.53,0.55 3.39,0.55 v 0 0 q 3.07,0 3.07,-2.33 v 0 0 q 0,-1.71 -2,-1.71 v 0 H 3.48 v 0 q -2.73,0 -2.73,-2.46 v 0 0 q 0,-2.8 4,-2.8 v 0 0 q 1.64,0 3.18,0.41 v 0 0.68 0 Q 6.39,3.45 4.75,3.45 v 0 0 q -3.28,0 -3.28,2.18 v 0 0 q 0,1.78 2.01,1.78 v 0 h 2.01 v 0 q 2.71,0 2.71,2.39 v 0 0 q 0,2.94 -3.78,2.94 v 0 0 q -1.86,0 -3.39,-0.41 z M 10.05,2.9 h 0.72 v 9.77 h -0.72 z m 6.44,0 h 0.98 l -4.65,4.63 4.82,5.14 H 16.56 L 12.1,7.77 V 7.34 Z m 3.16,9.77 H 18.94 V 2.9 h 4.03 v 0 q 2.65,0 2.65,2.34 v 0 0 q 0,2.03 -2.88,2.88 v 0 l 3.3,4.55 H 25.06 L 21.81,8.14 v -0.48 0 Q 24.82,7.21 24.82,5.3 v 0 0 q 0,-1.77 -1.97,-1.77 v 0 h -3.2 z M 30.21,9.26 26.52,2.9 h 0.86 L 30.54,8.57 33.8,2.9 h 0.79 l -3.66,6.36 v 3.41 h -0.72 z m 6.43,3.41 H 35.92 V 2.9 h 4.1 v 0 q 2.86,0 2.86,2.68 v 0 0 q 0,2.65 -4.57,3.38 v 0 L 38.19,8.3 v 0 q 3.89,-0.54 3.89,-2.66 v 0 0 q 0,-2.11 -2.17,-2.11 v 0 H 36.64 Z M 43.53,2.9 h 7.35 v 0.61 h -3.35 v 9.16 H 46.81 V 3.51 h -3.28 z"
       id="path9"
       inkscape:connector-curvature="0"
       style="fill:url(#linearGradient18)" />
  </g>
  <linearGradient
     data-v-1084b650=""
     gradientTransform="rotate(25)"
     id="e3d4f64a-b729-40b3-cd89-ea8508612a94"
     x1="0"
     y1="0"
     x2="1"
     y2="0">
    <stop
       data-v-1084b650=""
       offset="0%"
       style="stop-color: rgb(234, 116, 37); stop-opacity: 1;"
       id="stop12" />
    <stop
       data-v-1084b650=""
       offset="100%"
       style="stop-color: rgb(45, 122, 95); stop-opacity: 1;"
       id="stop14" />
  </linearGradient>
  <g
     data-v-1084b650=""
     id="cd763fe1-c5b5-168d-6bbe-c0b668809ef9"
     transform="matrix(0.92592199,0,0,0.86769142,-83.44188,5.7714329)"
     style="fill:url(#linearGradient26);stroke:none">
    <svg
       viewBox="0 0 100 100"
       version="1.1"
       id="svg19"
       width="100%"
       height="100%"
       style="fill:url(#linearGradient24)">
      <path
         d="M 66.327,94.224 H 33.657 L 36.504,83.828 H 63.479 Z M 54.383,5.776 h -8.688 l -20.937,50.578 11.984,25.5 h 26.5 l 12,-25.484 z M 61.32,78.86 H 38.743 L 28.039,56.276 47.66,8.86 h 0.833 v 42.312 a 3.249,3.249 0 0 0 -1.763,2.882 3.263,3.263 0 0 0 6.526,0 c 0,-1.259 -0.72,-2.338 -1.763,-2.882 V 8.86 h 0.834 l 19.635,47.417 z"
         id="path17"
         inkscape:connector-curvature="0"
         style="fill:url(#linearGradient22)" />
    </svg>
  </g>
</svg>
