<?xml version="1.0" encoding="UTF-8" standalone="no"?>
<svg
   xmlns:dc="http://purl.org/dc/elements/1.1/"
   xmlns:cc="http://creativecommons.org/ns#"
   xmlns:rdf="http://www.w3.org/1999/02/22-rdf-syntax-ns#"
   xmlns:svg="http://www.w3.org/2000/svg"
   xmlns="http://www.w3.org/2000/svg"
   xmlns:xlink="http://www.w3.org/1999/xlink"
   xmlns:sodipodi="http://sodipodi.sourceforge.net/DTD/sodipodi-0.dtd"
   xmlns:inkscape="http://www.inkscape.org/namespaces/inkscape"
   data-v-1084b650=""
   viewBox="0 0 238.98305 68.644066"
   version="1.1"
   id="svg22"
   sodipodi:docname="icon-left-font-2.svg"
   inkscape:version="0.92.3 (2405546, 2018-03-11)"
   width="238.98305"
   height="68.644066">
  <metadata
     id="metadata28">
    <rdf:RDF>
      <cc:Work
         rdf:about="">
        <dc:format>image/svg+xml</dc:format>
        <dc:type
           rdf:resource="http://purl.org/dc/dcmitype/StillImage" />
      </cc:Work>
    </rdf:RDF>
  </metadata>
  <defs
     id="defs26">
    <linearGradient
       inkscape:collect="always"
       xlink:href="#4a0e07a2-e962-d053-7c69-15576c651ea5"
       id="linearGradient18"
       gradientTransform="scale(2.2491169,0.44461896)"
       x1="0.33346422"
       y1="6.3650008"
       x2="22.622212"
       y2="6.3650008"
       gradientUnits="userSpaceOnUse" />
    <linearGradient
       inkscape:collect="always"
       xlink:href="#4a0e07a2-e962-d053-7c69-15576c651ea5"
       id="linearGradient20"
       gradientTransform="scale(2.2491169,0.44461896)"
       x1="0.33346422"
       y1="6.3650008"
       x2="22.622212"
       y2="6.3650008"
       gradientUnits="userSpaceOnUse" />
    <linearGradient
       inkscape:collect="always"
       xlink:href="#e3d4f64a-b729-40b3-cd89-ea8508612a94"
       id="linearGradient22"
       gradientTransform="scale(0.75549722,1.3236316)"
       x1="61.579414"
       y1="50"
       x2="73.833527"
       y2="50.24511"
       gradientUnits="userSpaceOnUse"
       spreadMethod="pad" />
    <linearGradient
       inkscape:collect="always"
       xlink:href="#e3d4f64a-b729-40b3-cd89-ea8508612a94"
       id="linearGradient24"
       gradientTransform="scale(0.75549722,1.3236316)"
       x1="32.770471"
       y1="4.3637519"
       x2="99.592689"
       y2="4.3637519"
       gradientUnits="userSpaceOnUse" />
    <linearGradient
       inkscape:collect="always"
       xlink:href="#e3d4f64a-b729-40b3-cd89-ea8508612a94"
       id="linearGradient26"
       gradientTransform="scale(0.75549722,1.3236316)"
       x1="32.770471"
       y1="4.3637519"
       x2="99.592689"
       y2="4.3637519"
       gradientUnits="userSpaceOnUse" />
  </defs>
  <sodipodi:namedview
     pagecolor="#ffffff"
     bordercolor="#666666"
     borderopacity="1"
     objecttolerance="10"
     gridtolerance="10"
     guidetolerance="10"
     inkscape:pageopacity="0"
     inkscape:pageshadow="2"
     inkscape:window-width="1920"
     inkscape:window-height="1027"
     id="namedview24"
     showgrid="false"
     inkscape:zoom="2.639375"
     inkscape:cx="116.69009"
     inkscape:cy="27.790368"
     inkscape:window-x="-8"
     inkscape:window-y="-8"
     inkscape:window-maximized="1"
     inkscape:current-layer="579a1dc0-c639-d48d-1ee7-bb4a10a46477" />
  <!---->
  <!---->
  <path
     id="rect2"
     style="fill:none;stroke-width:0.42693698"
     d="M 0,0 V 68.644531 H 238.98242 V 0 Z m 120.18945,19.689453 c 0.3158,-0.05227 0.6031,0.278584 0.41407,0.845703 -0.0644,0.193237 -0.12136,0.389538 -0.19336,0.580078 -0.41398,1.095606 -0.0555,-0.0049 -0.44336,1.085938 -0.11025,0.310017 -0.19379,0.644171 -0.28711,0.958984 -0.0695,0.234634 -0.14361,0.468996 -0.21485,0.703125 -0.0987,0.456009 -0.13264,0.664992 -0.26367,1.09961 -0.1917,0.635886 -0.0413,0.0775 -0.22461,0.585937 -0.0294,0.08144 -0.0295,0.171045 -0.0469,0.25586 -0.0278,0.08837 -0.0511,0.179041 -0.084,0.265624 -0.0773,0.203135 -0.1761,0.392843 -0.22265,0.607422 -0.0107,0.04919 -0.008,0.100201 -0.0117,0.150391 -0.0196,0.0817 -0.039,0.162443 -0.0586,0.244141 -0.0568,0.260904 -0.0945,0.523002 -0.11718,0.789062 -0.009,0.102454 -0.005,0.138726 -0.006,0.160156 0,0 0,0.002 0,0.002 0.0535,0.202559 0.0249,0.423177 0.0234,0.634765 -0.033,0.10273 -0.0666,0.20391 -0.0996,0.306641 -0.0168,0.03247 -0.0372,0.06373 -0.0508,0.09766 -0.006,0.0146 0.0175,-0.04284 0.0312,-0.03516 0.006,0.0035 0.0188,0.130781 0.0195,0.136718 0.0124,0.25428 0.0273,0.19285 -0.0625,0.501954 -0.0158,0.05447 -0.0497,0.103987 -0.0664,0.158203 -0.0138,0.04488 0.0151,0.094 0.01,0.140625 -0.0103,0.0881 -0.0307,0.174508 -0.0469,0.261718 -0.0783,0.30069 -0.0288,0.613603 -0.0195,0.919922 -0.0158,0.248191 0.02,0.50237 -0.004,0.75 -0.0238,0.242214 -0.0865,0.486521 -0.1289,0.726563 -0.16639,0.941888 -1.11783,0.773874 -0.95118,-0.167969 0.0194,-0.109529 0.0561,-0.315966 0.0742,-0.402344 0.0115,-0.05516 0.0355,-0.107974 0.041,-0.164062 0.0228,-0.235765 -0.0113,-0.476539 0.004,-0.712891 -0.0108,-0.38911 -0.0632,-0.786313 0.043,-1.167969 0.0689,-0.150663 -0.0151,0.05153 0.0332,-0.316406 0.0109,-0.08301 0.0334,-0.165652 0.0566,-0.246094 0.009,-0.02952 0.0167,-0.06296 0.0391,-0.08398 0.009,-0.0082 0.0203,0.03887 0.0234,0.02734 0.009,-0.03461 -0.003,-0.07163 -0.004,-0.107422 -0.0285,-0.235219 -0.0358,-0.435068 0.0508,-0.662109 0.0112,-0.02935 0.0188,-0.09799 0.043,-0.08398 0.001,-0.07507 0.003,-0.149521 0.006,-0.224609 7.5e-4,-0.02304 -0.0187,-0.0796 0.002,-0.07031 0.0622,0.02738 -0.0172,0.183844 0.0898,0.183594 -0.0383,-0.08899 -0.0878,-0.174681 -0.11524,-0.267578 -0.0233,-0.07887 -2.3e-4,-0.3502 0.004,-0.398438 0.0284,-0.311329 0.0738,-0.618827 0.14258,-0.923828 0.10844,-0.38472 -0.0692,0.266269 0.0879,-0.455078 0.0584,-0.268272 0.18936,-0.512002 0.27734,-0.769531 0.0308,-0.148393 0.0576,-0.299612 0.10742,-0.443359 0.19884,-0.574339 -0.0574,0.324783 0.17969,-0.455078 0.12559,-0.412992 0.174,-0.688566 0.27149,-1.128907 0.17508,-0.575044 0.32319,-1.165945 0.52539,-1.732422 0.56361,-1.578965 -0.0889,0.328942 0.42773,-1.039062 0.072,-0.190551 0.12894,-0.386841 0.19336,-0.580078 0.11342,-0.340272 0.31248,-0.509655 0.50195,-0.541016 z" />
  <linearGradient
     data-v-1084b650=""
     gradientTransform="rotate(25)"
     id="4a0e07a2-e962-d053-7c69-15576c651ea5"
     x1="0"
     y1="0"
     x2="1"
     y2="0">
    <stop
       data-v-1084b650=""
       offset="0%"
       style="stop-color: rgb(234, 116, 37); stop-opacity: 1;"
       id="stop4" />
    <stop
       data-v-1084b650=""
       offset="100%"
       style="stop-color: rgb(45, 122, 95); stop-opacity: 1;"
       id="stop6" />
  </linearGradient>
  <g
     data-v-1084b650=""
     id="579a1dc0-c639-d48d-1ee7-bb4a10a46477"
     transform="matrix(3.7,0,0,3.7,47.587764,6.7887236)"
     style="fill:url(#linearGradient20)">
    <path
       d="m 1.03,12.33 v 0 -0.75 0 c 1.02,0.366667 2.15,0.55 3.39,0.55 v 0 0 c 2.0466667,0 3.07,-0.776667 3.07,-2.33 v 0 0 c 0,-1.14 -0.6666667,-1.71 -2,-1.71 v 0 H 3.48 v 0 C 1.66,8.09 0.75,7.27 0.75,5.63 v 0 0 c 0,-1.8666667 1.3333333,-2.8 4,-2.8 v 0 0 c 1.0933333,0 2.1533333,0.1366667 3.18,0.41 v 0 0.68 0 C 6.9033333,3.6066667 5.8433333,3.45 4.75,3.45 v 0 0 c -2.1866667,0 -3.28,0.7266667 -3.28,2.18 v 0 0 c 0,1.1866667 0.67,1.78 2.01,1.78 v 0 h 2.01 v 0 c 1.8066667,0 2.71,0.7966667 2.71,2.39 v 0 0 c 0,1.96 -1.26,2.94 -3.78,2.94 v 0 0 c -1.24,0 -2.37,-0.136667 -3.39,-0.41 z M 10.05,2.9 h 0.72 v 9.77 h -0.72 z m 6.44,0 h 0.98 l -4.65,4.63 4.82,5.14 H 16.56 L 12.1,7.77 V 7.34 Z m 3.16,9.77 H 18.94 V 2.9 h 4.03 v 0 c 1.766667,0 2.65,0.78 2.65,2.34 v 0 0 c 0,1.3533333 -0.96,2.3133333 -2.88,2.88 v 0 l 3.3,4.55 H 25.06 L 21.81,8.14 v -0.48 0 c 2.006667,-0.3 3.01,-1.0866667 3.01,-2.36 v 0 0 c 0,-1.18 -0.656667,-1.77 -1.97,-1.77 v 0 h -3.2 m 0,0 v 9.14 M 30.21,9.26 26.52,2.9 h 0.86 L 30.54,8.57 33.8,2.9 h 0.79 l -3.66,6.36 v 3.41 h -0.72 z m 6.43,3.41 H 35.92 V 2.9 h 4.1 v 0 c 1.906667,0 2.86,0.8933333 2.86,2.68 v 0 0 c 0,1.7666667 -1.523333,2.8933333 -4.57,3.38 v 0 L 38.19,8.3 v 0 c 2.593333,-0.36 3.89,-1.2466667 3.89,-2.66 v 0 0 c 0,-1.4066667 -0.723333,-2.11 -2.17,-2.11 v 0 H 36.64 Z M 43.53,2.9 h 7.35 v 0.61 h -3.35 v 9.16 H 46.81 V 3.51 h -3.28 z"
       id="path9"
       inkscape:connector-curvature="0"
       style="fill:url(#linearGradient18)"
       sodipodi:nodetypes="cccccccccccccccccccccccccccccccccccccccccccccccccccccccccccccccccccccccccccccccccccccccccccccccccccccccccccccccccsc" />
  </g>
  <linearGradient
     data-v-1084b650=""
     gradientTransform="rotate(25)"
     id="e3d4f64a-b729-40b3-cd89-ea8508612a94"
     x1="0"
     y1="0"
     x2="1"
     y2="0">
    <stop
       data-v-1084b650=""
       offset="0%"
       style="stop-color: rgb(234, 116, 37); stop-opacity: 1;"
       id="stop12" />
    <stop
       data-v-1084b650=""
       offset="100%"
       style="stop-color: rgb(45, 122, 95); stop-opacity: 1;"
       id="stop14" />
  </linearGradient>
  <g
     data-v-1084b650=""
     id="cd763fe1-c5b5-168d-6bbe-c0b668809ef9"
     transform="matrix(0.92592199,0,0,0.86769142,-89.44188,5.7714329)"
     style="fill:url(#linearGradient26);stroke:none">
    <svg
       viewBox="0 0 100 100"
       version="1.1"
       id="svg19"
       width="100%"
       height="100%"
       style="fill:url(#linearGradient24)">
      <path
         d="M 66.327,94.224 H 33.657 L 36.504,83.828 H 63.479 Z M 54.383,5.776 h -8.688 l -20.937,50.578 11.984,25.5 h 26.5 l 12,-25.484 z M 61.32,78.86 H 38.743 L 28.039,56.276 47.66,8.86 h 0.833 v 42.312 a 3.249,3.249 0 0 0 -1.763,2.882 3.263,3.263 0 0 0 6.526,0 c 0,-1.259 -0.72,-2.338 -1.763,-2.882 V 8.86 h 0.834 l 19.635,47.417 z"
         id="path17"
         inkscape:connector-curvature="0"
         style="fill:url(#linearGradient22)" />
    </svg>
  </g>
</svg>
