<svg data-v-1084b650="" xmlns="http://www.w3.org/2000/svg" viewBox="0 0 300 300"><!----> <!----> <rect data-v-1084b650="" fill="#FFFFFF" x="0" y="0" width="300px" height="300px" class="logo-background-square"></rect> <!----> <linearGradient data-v-1084b650="" gradientTransform="rotate(25)" id="91fac9ed-07da-823e-7173-648915a1ae0c" x1="0%" y1="0%" x2="100%" y2="0%"><stop data-v-1084b650="" offset="0%" style="stop-color: rgb(254, 15, 15); stop-opacity: 1;"></stop> <stop data-v-1084b650="" offset="100%" style="stop-color: rgb(251, 182, 8); stop-opacity: 1;"></stop></linearGradient> <g data-v-1084b650="" id="84e21433-66a4-521b-b94d-a11f7adf9ca1" fill="url(#91fac9ed-07da-823e-7173-648915a1ae0c)" stroke="none" transform="matrix(1,0,0,1,-17.85002899169922,-5.5672607421875)"><svg xmlns="http://www.w3.org/2000/svg" xmlns:xlink="http://www.w3.org/1999/xlink" version="1.1" x="0px" y="0px" viewBox="0 0 100 100" style="enable-background:new 0 0 100 100;" xml:space="preserve"><style type="text/css">
	.st0{fill:none;stroke:#000000;stroke-miterlimit:10;}
	.st1{fill:#FFFFFF;}
	.st2{fill:none;}
	.st3{fill:none;stroke:#010101;stroke-miterlimit:10;}
	.st4{fill:#010101;}
	.st5{fill:none;stroke:#000000;stroke-width:1.5;stroke-linecap:square;stroke-miterlimit:10;stroke-dasharray:0,3;}
	.st6{fill:none;stroke:#FFFFFF;stroke-width:0.25;stroke-miterlimit:10;}
	.st7{fill:none;stroke:#000000;stroke-width:2;stroke-miterlimit:10;}
	.st8{fill:none;stroke:#000000;stroke-width:1.2;stroke-miterlimit:10;}
</style><g><path class="st2" d="M50.9,46.2c7.5,0,13.6-6.1,13.6-13.6S58.4,19,50.9,19s-13.6,6.1-13.6,13.6S43.4,46.2,50.9,46.2z"></path><path d="M50.9,60.3C50.9,60.3,50.9,60.3,50.9,60.3C50.9,60.3,50.9,60.3,50.9,60.3C50.9,60.3,50.9,60.3,50.9,60.3   c5.3,0,7.7-4.6,8.4-7.7l10.8,0l1.8,7.1l1.8-0.5l-2.2-8.4l-13.8,0l-0.1,0.8c0,0-0.3,1.8-1.2,3.5c-1.3,2.2-3.1,3.4-5.4,3.4   c0,0,0,0,0,0h0c0,0,0,0,0,0c-5.6,0-6.6-6.6-6.7-6.9l-0.1-0.8l-13.8,0l-6.9,27l1.8,0.4l6.5-25.6l10.8,0   C43.2,55.6,45.6,60.3,50.9,60.3C50.9,60.3,50.9,60.3,50.9,60.3z"></path><path d="M50.9,48.2c8.6,0,15.6-7,15.6-15.6S59.5,17,50.9,17s-15.6,7-15.6,15.6S42.3,48.2,50.9,48.2z M50.9,19   c7.5,0,13.6,6.1,13.6,13.6s-6.1,13.6-13.6,13.6s-13.6-6.1-13.6-13.6S43.4,19,50.9,19z"></path><polygon points="79,65.7 77.7,67 85.7,75.1 77.6,84 79.1,85.3 88.4,75  "></polygon><rect x="57.9" y="74.5" transform="matrix(0.3614 -0.9324 0.9324 0.3614 -25.9587 113.0865)" width="23.4" height="1.9"></rect><polygon points="60.1,65.7 50.8,76 60.1,85.3 61.5,83.9 53.5,75.9 61.5,67  "></polygon></g></svg></g></svg>