<svg data-v-1084b650="" xmlns="http://www.w3.org/2000/svg" viewBox="0 0 300 300"><!----> <!----> <rect data-v-1084b650="" fill="#FFFFFF" x="0" y="0" width="300px" height="300px" class="logo-background-square"></rect> <linearGradient data-v-1084b650="" gradientTransform="rotate(25)" id="69050a9d-6d67-452c-9181-c17249275c83" x1="0%" y1="0%" x2="100%" y2="0%"><stop data-v-1084b650="" offset="0%" style="stop-color: rgb(234, 116, 37); stop-opacity: 1;"></stop> <stop data-v-1084b650="" offset="100%" style="stop-color: rgb(45, 122, 95); stop-opacity: 1;"></stop></linearGradient> <g data-v-1084b650="" id="1d8bbb7e-a4ed-bb36-6b8a-6174b0450975" fill="url(#69050a9d-6d67-452c-9181-c17249275c83)" transform="matrix(4.599999999999999,0,0,4.599999999999999,31.250995635986357,166.61290130615237)"><path d="M1.03 12.33L1.03 12.33L1.03 11.58L1.03 11.58Q2.56 12.13 4.42 12.13L4.42 12.13L4.42 12.13Q7.49 12.13 7.49 9.80L7.49 9.80L7.49 9.80Q7.49 8.09 5.49 8.09L5.49 8.09L3.48 8.09L3.48 8.09Q0.75 8.09 0.75 5.63L0.75 5.63L0.75 5.63Q0.75 2.83 4.75 2.83L4.75 2.83L4.75 2.83Q6.39 2.83 7.93 3.24L7.93 3.24L7.93 3.92L7.93 3.92Q6.39 3.45 4.75 3.45L4.75 3.45L4.75 3.45Q1.47 3.45 1.47 5.63L1.47 5.63L1.47 5.63Q1.47 7.41 3.48 7.41L3.48 7.41L5.49 7.41L5.49 7.41Q8.20 7.41 8.20 9.80L8.20 9.80L8.20 9.80Q8.20 12.74 4.42 12.74L4.42 12.74L4.42 12.74Q2.56 12.74 1.03 12.33ZM10.05 2.90L10.77 2.90L10.77 12.67L10.05 12.67L10.05 2.90ZM16.49 2.90L17.47 2.90L12.82 7.53L17.64 12.67L16.56 12.67L12.10 7.77L12.10 7.34L16.49 2.90ZM19.65 12.67L18.94 12.67L18.94 2.90L22.97 2.90L22.97 2.90Q25.62 2.90 25.62 5.24L25.62 5.24L25.62 5.24Q25.62 7.27 22.74 8.12L22.74 8.12L26.04 12.67L25.06 12.67L21.81 8.14L21.81 7.66L21.81 7.66Q24.82 7.21 24.82 5.30L24.82 5.30L24.82 5.30Q24.82 3.53 22.85 3.53L22.85 3.53L19.65 3.53L19.65 12.67ZM30.21 9.26L26.52 2.90L27.38 2.90L30.54 8.57L33.80 2.90L34.59 2.90L30.93 9.26L30.93 12.67L30.21 12.67L30.21 9.26ZM36.64 12.67L35.92 12.67L35.92 2.90L40.02 2.90L40.02 2.90Q42.88 2.90 42.88 5.58L42.88 5.58L42.88 5.58Q42.88 8.23 38.31 8.96L38.31 8.96L38.19 8.30L38.19 8.30Q42.08 7.76 42.08 5.64L42.08 5.64L42.08 5.64Q42.08 3.53 39.91 3.53L39.91 3.53L36.64 3.53L36.64 12.67ZM43.53 2.90L50.88 2.90L50.88 3.51L47.53 3.51L47.53 12.67L46.81 12.67L46.81 3.51L43.53 3.51L43.53 2.90Z"></path></g> <linearGradient data-v-1084b650="" gradientTransform="rotate(25)" id="ffa8eaa7-0c55-8ae9-a46a-6b261f8c8508" x1="0%" y1="0%" x2="100%" y2="0%"><stop data-v-1084b650="" offset="0%" style="stop-color: rgb(234, 116, 37); stop-opacity: 1;"></stop> <stop data-v-1084b650="" offset="100%" style="stop-color: rgb(45, 122, 95); stop-opacity: 1;"></stop></linearGradient> <g data-v-1084b650="" id="92512c93-4363-0352-c61d-4e5a38a97e66" stroke="none" fill="url(#ffa8eaa7-0c55-8ae9-a46a-6b261f8c8508)" transform="matrix(0.3435992545882638,0,0,0.3435992545882638,98.46011681970069,68.82920987846902)"><svg xmlns="http://www.w3.org/2000/svg" viewBox="0 0 100 100"><path d="M66.327 94.224h-32.67l2.847-10.396h26.975zM54.383 5.776h-8.688L24.758 56.354l11.984 25.5h26.5l12-25.484L54.383 5.776zM61.32 78.86H38.743L28.039 56.276 47.66 8.86h.833v42.312a3.249 3.249 0 0 0-1.763 2.882 3.263 3.263 0 0 0 6.526 0c0-1.259-.72-2.338-1.763-2.882V8.86h.834l19.635 47.417L61.32 78.86z"></path></svg></g></svg>